<svg xmlns="http://www.w3.org/2000/svg" viewBox="0 0 800 245">
  <rect x="0" y="173" fill="#fff" width="800" height="72"/>
  <linearGradient id="a" x1="0" y1="1" x2="0" y2="0">
    <stop offset="0" stop-color="#7876fd"/>
    <stop offset="1" stop-color="#75a5d5"/>
  </linearGradient>
  <g transform="translate(400 173) scale(0.13472765766343747) translate(-340.63 -332.8)">
    <circle cx="340.63" cy="332.8" r="311.74" fill="url(#a)"/>
    <path d="M500.06 448.68c0 27.2-21.44 49.46-47.66 49.46H228.86c-26.21 0-47.66-22.26-47.66-49.46 0-16.66 8.04-31.46 20.3-40.43l118.94-98.83c2.21-1.76 5.08 1.08 3.49 3.45l-43.63 81.28c-1.22 2.28.36 5.08 2.87 5.08H452.4c26.21 0 47.66 22.25 47.66 49.45zm0-231.75c0 16.66-8.04 31.46-20.3 40.43L360.82 356.2c-2.21 1.76-5.08-1.08-3.49-3.45l43.63-81.28c1.22-2.28-.36-5.08-2.87-5.08H228.86c-26.21 0-47.66-22.26-47.66-49.46s21.44-49.46 47.66-49.46H452.4c26.21.01 47.66 22.26 47.66 49.46z" fill="#fff"/>
  </g>
</svg>
