<svg xmlns="http://www.w3.org/2000/svg" viewBox="28.89 21.06 623.48 623.48"><circle cx="340.63" cy="332.8" r="311.74" fill="#444"/><path d="M500.06 448.68c0 27.2-21.44 49.46-47.66 49.46H228.86c-26.21 0-47.66-22.26-47.66-49.46 0-16.66 8.04-31.46 20.3-40.43l118.94-98.83c2.21-1.76 5.08 1.08 3.49 3.45l-43.63 81.28c-1.22 2.28.36 5.08 2.87 5.08H452.4c26.21 0 47.66 22.25 47.66 49.45zm0-231.75c0 16.66-8.04 31.46-20.3 40.43L360.82 356.2c-2.21 1.76-5.08-1.08-3.49-3.45l43.63-81.28c1.22-2.28-.36-5.08-2.87-5.08H228.86c-26.21 0-47.66-22.26-47.66-49.46s21.44-49.46 47.66-49.46H452.4c26.21.01 47.66 22.26 47.66 49.46z" fill="#fff"/></svg>