<svg xmlns="http://www.w3.org/2000/svg" viewBox="29.66 35.26 711.05 174.14"><linearGradient id="a" x1="0" y1="1" x2="0" y2="0"><stop offset="0" stop-color="#7876fd"/><stop offset="1" stop-color="#67adf9"/></linearGradient><path fill="url(#a)" d="M300.69 154.65l49.75-72.25V68.45h-77.48v19.97h46.11v.63l-50.86 73.21v12.99h83.03v-19.97h-50.55zm144.67-24.72c0 18.86-6.97 27.73-19.65 27.73-12.36 0-19.33-9.35-19.33-27.73V68.45h-24.24v59.58c0 34.07 15.84 48.96 42.78 48.96 27.89 0 44.52-15.69 44.52-48.64v-59.9h-24.08v61.48zm85.08-61.48H506.2v106.8h66.71v-20.28h-42.47zm72.57 0h24.24v106.79h-24.24zm126.29 7.77c-7.13-5.7-17.75-8.56-32.64-8.56-14.74 0-25.19.95-32.64 2.22v105.37h23.93v-38.19c2.22.32 5.07.48 8.24.48 14.26 0 26.46-3.49 34.7-11.25 6.34-6.02 9.82-14.89 9.82-25.35-.01-10.46-4.6-19.33-11.41-24.72zM696.02 119c-3.49 0-6.02-.16-8.08-.63V86.83c1.74-.48 5.07-.95 9.98-.95 12.04 0 18.86 5.86 18.86 15.69 0 10.93-7.92 17.43-20.76 17.43z"/><path fill="url(#a)" d="M172.49 35.26H54.76c-13.8 0-25.1 11.72-25.1 26.05s11.29 26.05 25.1 26.05h89.12c1.32 0 2.16 1.47 1.51 2.67l-22.98 42.8c-.84 1.25.67 2.75 1.84 1.82l62.64-52.05c6.45-4.73 10.69-12.52 10.69-21.29 0-14.33-11.29-26.05-25.09-26.05z"/><path fill="url(#a)" d="M172.49 157.3H83.37c-1.32 0-2.16-1.47-1.51-2.67l22.98-42.8c.84-1.25-.67-2.75-1.84-1.82l-62.64 52.05c-6.45 4.73-10.69 12.52-10.69 21.29 0 14.33 11.29 26.05 25.1 26.05h117.72c13.8 0 25.1-11.72 25.1-26.05-.01-14.33-11.3-26.05-25.1-26.05z"/></svg>