<?xml version="1.0" encoding="UTF-8" standalone="no"?>
<!-- Created with Inkscape (http://www.inkscape.org/) -->

<svg
   xmlns:dc="http://purl.org/dc/elements/1.1/"
   xmlns:cc="http://creativecommons.org/ns#"
   xmlns:rdf="http://www.w3.org/1999/02/22-rdf-syntax-ns#"
   xmlns:svg="http://www.w3.org/2000/svg"
   xmlns="http://www.w3.org/2000/svg"
   xmlns:sodipodi="http://sodipodi.sourceforge.net/DTD/sodipodi-0.dtd"
   xmlns:inkscape="http://www.inkscape.org/namespaces/inkscape"
   width="16"
   height="16"
   id="svg2"
   version="1.1"
   inkscape:version="0.48.3.1 r9886"
   sodipodi:docname="orig.svg"
   inkscape:export-filename="/tmp/icon.png"
   inkscape:export-xdpi="90.235413"
   inkscape:export-ydpi="90.235413">
  <title
     id="title2993">Humbug Hat</title>
  <defs
     id="defs4" />
  <sodipodi:namedview
     id="base"
     pagecolor="#ffffff"
     bordercolor="#666666"
     borderopacity="1.0"
     inkscape:pageopacity="0.0"
     inkscape:pageshadow="2"
     inkscape:zoom="22.627417"
     inkscape:cx="9.9158448"
     inkscape:cy="9.6950594"
     inkscape:document-units="px"
     inkscape:current-layer="layer1"
     showgrid="false"
     inkscape:window-width="1278"
     inkscape:window-height="1598"
     inkscape:window-x="1200"
     inkscape:window-y="0"
     inkscape:window-maximized="0"
     fit-margin-top="0"
     fit-margin-left="0"
     fit-margin-right="0"
     fit-margin-bottom="0" />
  <metadata
     id="metadata7">
    <rdf:RDF>
      <cc:Work
         rdf:about="">
        <dc:format>image/svg+xml</dc:format>
        <dc:type
           rdf:resource="http://purl.org/dc/dcmitype/StillImage" />
        <dc:title>Humbug Hat</dc:title>
        <dc:creator>
          <cc:Agent>
            <dc:title>Luke Faraone &lt;lfaraone@zulip.com&gt;</dc:title>
          </cc:Agent>
        </dc:creator>
        <dc:rights>
          <cc:Agent>
            <dc:title>© 2012 Zulip, Inc. All Rights Reserved</dc:title>
          </cc:Agent>
        </dc:rights>
        <dc:date>28 Sept 2012</dc:date>
        <dc:language>The Hat transcends all language</dc:language>
        <dc:coverage>Your head</dc:coverage>
      </cc:Work>
    </rdf:RDF>
  </metadata>
  <linearGradient id="a" x1="0" y1="1" x2="0" y2="0">
    <stop offset="0" stop-color="#7876fd"/>
    <stop offset="1" stop-color="#75a5d5"/>
  </linearGradient>
  <g transform="translate(8 8) scale(0.0256624109835119) translate(-332.8 -311.74)">
    <circle cx="340.63" cy="332.8" r="311.74" fill="url(#a)"/>
    <path d="M500.06 448.68c0 27.2-21.44 49.46-47.66 49.46H228.86c-26.21 0-47.66-22.26-47.66-49.46 0-16.66 8.04-31.46 20.3-40.43l118.94-98.83c2.21-1.76 5.08 1.08 3.49 3.45l-43.63 81.28c-1.22 2.28.36 5.08 2.87 5.08H452.4c26.21 0 47.66 22.25 47.66 49.45zm0-231.75c0 16.66-8.04 31.46-20.3 40.43L360.82 356.2c-2.21 1.76-5.08-1.08-3.49-3.45l43.63-81.28c1.22-2.28-.36-5.08-2.87-5.08H228.86c-26.21 0-47.66-22.26-47.66-49.46s21.44-49.46 47.66-49.46H452.4c26.21.01 47.66 22.26 47.66 49.46z" fill="#fff"/>
  </g>
  <g
     inkscape:label="Layer 1"
     inkscape:groupmode="layer"
     id="layer1"
     transform="translate(-112.53125,-681.00001)">
    <text
       sodipodi:linespacing="125%"
       id="number_back"
       y="696.09375"
       x="116.34375"
       style="font-size:10px;font-style:normal;font-variant:normal;font-weight:normal;font-stretch:normal;line-height:125%;letter-spacing:0px;word-spacing:0px;fill:none;stroke:#ffffff;stroke-width:2;stroke-miterlimit:4;stroke-opacity:0.84705882;stroke-dasharray:none;font-family:Monospace;-inkscape-font-specification:Monospace"
       xml:space="preserve"
       inkscape:label="#text3802"><tspan
         y="696.09375"
         x="116.34375"
         id="tspan3804"
         sodipodi:role="line">99</tspan></text>
    <text
       xml:space="preserve"
       style="font-size:10px;font-style:normal;font-variant:normal;font-weight:normal;font-stretch:normal;line-height:125%;letter-spacing:0px;word-spacing:0px;fill:#000000;fill-opacity:1;stroke:none;font-family:Monospace;-inkscape-font-specification:Monospace"
       x="116.34375"
       y="696.09375"
       id="number_front"
       sodipodi:linespacing="125%"
       inkscape:label="#text3798"><tspan
         sodipodi:role="line"
         id="tspan3800"
         x="116.34375"
         y="696.09375">99</tspan></text>
  </g>
</svg>
